<?xml version="1.0" encoding="utf-8"?>
<!-- Generator: Adobe Illustrator 25.0.1, SVG Export Plug-In . SVG Version: 6.00 Build 0)  -->
<svg version="1.0" id="katman_1" xmlns="http://www.w3.org/2000/svg" xmlns:xlink="http://www.w3.org/1999/xlink" x="0px" y="0px"
	 viewBox="0 0 800 600" style="enable-background:new 0 0 800 600;" xml:space="preserve">
<style type="text/css">
	.st0{fill:#003059;}
</style>
<path class="st0" d="M217.6,294.2c-1.3-1.6-2.9-2.9-4.6-3.9c-1.9-1-4.2-1.6-6.8-1.6c-2.4,0-4.8,0.6-6.6,1.6c-1.9,1-2.7,2.6-2.7,4.6
	c0,1.6,0.6,3,1.6,4s2.3,1.9,3.7,2.4c1.4,0.6,3,1.2,4.6,1.4c1.6,0.3,3,0.6,4.3,0.9c2.3,0.6,4.5,1.2,6.5,2c2,0.7,3.7,1.9,5.2,3
	c1.4,1.3,2.6,2.7,3.5,4.6s1.3,4,1.3,6.6c0,3.2-0.7,5.9-2,8.1c-1.3,2.3-3,4-5.2,5.5c-2.2,1.4-4.6,2.4-7.2,3c-2.7,0.6-5.5,1-8.2,1
	c-4.6,0-8.8-0.7-12.2-2.2c-3.5-1.4-6.6-4-9.4-7.8l8.1-6.6c1.7,1.7,3.6,3.3,5.8,4.6c2.2,1.3,4.8,2,7.8,2c1.3,0,2.7-0.1,4-0.4
	c1.4-0.3,2.6-0.7,3.6-1.3c1-0.6,1.9-1.3,2.6-2.3c0.7-0.9,1-2,1-3.2c0-1.6-0.4-2.9-1.4-3.9c-1-1-2.2-1.9-3.6-2.4
	c-1.4-0.6-2.9-1-4.3-1.4c-1.6-0.3-2.9-0.7-4-0.9c-2.3-0.6-4.5-1.2-6.5-1.9c-2-0.7-3.9-1.6-5.5-2.9c-1.6-1.2-2.9-2.7-3.7-4.5
	c-1-1.9-1.4-4-1.4-6.8c0-2.9,0.6-5.5,1.9-7.6c1.2-2.2,2.9-3.9,4.9-5.3c2-1.4,4.3-2.4,6.9-3.2s5.2-1,7.8-1c3.7,0,7.3,0.7,10.8,2.2
	s6.2,3.7,8.2,7.1C226.1,287.8,217.6,294.2,217.6,294.2z"/>
<path class="st0" d="M232.2,280h9.9v8.8h0.3c0.3-0.7,0.9-1.7,1.9-2.9c1-1.2,2.3-2.3,3.7-3.3c1.6-1,3.3-2,5.5-2.7
	c2-0.7,4.3-1.2,6.9-1.2c4.2,0,7.6,0.9,10.5,2.6c2.9,1.7,5.2,4.3,6.9,7.8c1.9-3.5,4.3-6.1,7.6-7.8c3.3-1.7,6.6-2.6,10.1-2.6
	c4.3,0,7.9,0.7,10.7,2.2c2.7,1.4,4.9,3.3,6.5,5.6c1.6,2.3,2.6,4.9,3.3,7.9c0.6,3,0.9,6.1,0.9,9.2v32.6h-10.7v-31.1
	c0-2.2-0.1-4.2-0.4-6.2c-0.3-2-0.9-3.7-1.7-5.2c-0.9-1.4-2-2.7-3.6-3.6s-3.6-1.3-6.2-1.3c-5.2,0-8.8,1.6-10.9,4.8
	c-2.2,3.2-3.3,7.2-3.3,12.1v30.5h-10.7V307c0-2.7-0.1-5.2-0.4-7.3c-0.3-2.2-0.9-4.2-1.6-5.8c-0.9-1.6-2-2.9-3.6-3.7
	c-1.6-0.9-3.6-1.3-6.2-1.3c-1.9,0-3.7,0.4-5.5,1.2s-3.3,1.9-4.6,3.3c-1.3,1.4-2.4,3.5-3.2,5.8c-0.7,2.3-1.2,5-1.2,8.2v29.1h-10.7
	C232.5,336.4,232.2,280,232.2,280z"/>
<path class="st0" d="M324.7,286.9c3-2.7,6.5-4.8,10.4-6.2c3.9-1.4,7.9-2,11.8-2c4,0,7.6,0.6,10.5,1.6c2.9,1,5.3,2.4,7.2,4.2
	c1.9,1.7,3.3,3.7,4.2,5.9c0.9,2.3,1.3,4.6,1.3,7.1V326c0,2,0,3.7,0.1,5.5c0.1,1.6,0.1,3.2,0.3,4.8H361c-0.3-2.9-0.3-5.6-0.3-8.5
	h-0.3c-2.3,3.6-5.2,6.2-8.4,7.6c-3.2,1.4-6.9,2.3-11.2,2.3c-2.6,0-5-0.3-7.5-1c-2.3-0.7-4.5-1.7-6.2-3.2c-1.7-1.4-3.2-3.2-4.2-5.2
	c-1-2-1.6-4.5-1.6-7.2c0-3.6,0.9-6.6,2.4-9.1c1.6-2.4,3.9-4.5,6.6-5.9c2.7-1.6,6.1-2.6,9.8-3.3s7.8-1,12-1h7.8v-2.3
	c0-1.4-0.3-2.9-0.9-4.3c-0.6-1.4-1.4-2.7-2.4-3.9c-1.2-1.2-2.4-2-4.2-2.7c-1.6-0.7-3.6-1-5.9-1c-2,0-3.9,0.1-5.3,0.6
	c-1.6,0.4-2.9,0.9-4.2,1.4s-2.4,1.3-3.5,2c-1,0.7-2,1.6-2.9,2.3C330.8,293.9,324.7,286.9,324.7,286.9z M354.7,309.1
	c-2.4,0-5,0.1-7.8,0.4c-2.6,0.3-5,0.9-7.2,1.6s-3.9,1.9-5.3,3.3c-1.4,1.4-2,3.2-2,5.5c0,3.2,1.2,5.6,3.3,6.9c2.2,1.4,5,2.2,8.8,2.2
	c2.9,0,5.3-0.4,7.5-1.4c2-1,3.7-2.3,4.9-3.9c1.3-1.6,2.2-3.3,2.7-5.2c0.6-1.9,0.9-3.9,0.9-5.8v-3.6H354.7L354.7,309.1z"/>
<path class="st0" d="M496.8,294.2c-1.3-1.6-2.9-2.9-4.6-3.9c-1.9-1-4.2-1.6-6.8-1.6c-2.6,0-4.8,0.6-6.6,1.6c-1.9,1-2.7,2.6-2.7,4.6
	c0,1.6,0.6,3,1.6,4c1,1,2.3,1.9,3.7,2.4c1.4,0.6,3,1.2,4.6,1.4c1.6,0.3,3,0.6,4.3,0.9c2.3,0.6,4.5,1.2,6.5,2c2,0.7,3.7,1.9,5.2,3
	c1.4,1.3,2.6,2.7,3.5,4.6c0.9,1.9,1.3,4,1.3,6.6c0,3.2-0.7,5.9-2,8.1c-1.3,2.3-3,4-5.2,5.5c-2.2,1.4-4.6,2.4-7.2,3
	c-2.7,0.6-5.5,1-8.2,1c-4.6,0-8.8-0.7-12.2-2.2c-3.5-1.4-6.6-4-9.4-7.8l8.1-6.6c1.7,1.7,3.6,3.3,5.8,4.6c2.2,1.3,4.8,2,7.8,2
	c1.3,0,2.7-0.1,4-0.4c1.4-0.3,2.6-0.7,3.6-1.3c1-0.6,1.9-1.3,2.6-2.3c0.7-0.9,1-2,1-3.2c0-1.6-0.4-2.9-1.4-3.9s-2.2-1.9-3.6-2.4
	c-1.4-0.6-2.9-1-4.3-1.4c-1.6-0.3-2.9-0.7-4-0.9c-2.3-0.6-4.5-1.2-6.5-1.9c-2-0.7-3.9-1.6-5.5-2.9c-1.6-1.2-2.9-2.7-3.7-4.5
	c-1-1.9-1.4-4-1.4-6.8c0-2.9,0.6-5.5,1.9-7.6c1.2-2.2,2.9-3.9,4.9-5.3c2-1.4,4.3-2.4,6.9-3.2s5.2-1,7.8-1c3.7,0,7.3,0.7,10.8,2.2
	c3.5,1.4,6.2,3.7,8.2,7.1L496.8,294.2L496.8,294.2z"/>
<path class="st0" d="M511.9,246.8h10.7v41.9h0.3c1.3-3,3.6-5.5,6.9-7.2c3.3-1.9,7.1-2.7,11.5-2.7c2.7,0,5.2,0.4,7.8,1.3
	c2.4,0.9,4.6,2.2,6.5,3.9s3.3,3.9,4.5,6.6s1.6,5.9,1.6,9.7v36h-10.7v-33.1c0-2.6-0.3-4.8-1-6.6c-0.7-1.9-1.6-3.3-2.9-4.5
	c-1.2-1.2-2.6-2-4-2.4c-1.6-0.6-3.2-0.7-4.8-0.7c-2.2,0-4.3,0.3-6.2,1s-3.6,1.9-4.9,3.3c-1.4,1.6-2.6,3.5-3.3,5.9
	c-0.7,2.3-1.2,5.2-1.2,8.4v28.8H512L511.9,246.8L511.9,246.8z"/>
<path class="st0" d="M578.3,312c0,2.4,0.6,4.6,1.6,6.6c1,2,2.4,3.7,4.2,5.2c1.7,1.4,3.7,2.6,6.1,3.3s4.6,1.2,7.1,1.2
	c3.3,0,6.2-0.7,8.6-2.3c2.4-1.6,4.8-3.6,6.8-6.1l8.1,6.2c-5.9,7.6-14.1,11.5-24.8,11.5c-4.5,0-8.4-0.7-12-2.3
	c-3.6-1.4-6.6-3.6-9.1-6.2c-2.4-2.6-4.3-5.8-5.8-9.4c-1.3-3.6-2-7.5-2-11.7s0.7-8.1,2.2-11.7s3.5-6.6,6.1-9.4
	c2.6-2.6,5.6-4.8,9.2-6.2c3.6-1.4,7.3-2.3,11.5-2.3c4.9,0,9.2,0.9,12.5,2.6c3.5,1.7,6.2,4,8.5,6.8c2.2,2.7,3.7,5.9,4.8,9.5
	c1,3.5,1.4,7.1,1.4,10.7v3.7L578.3,312L578.3,312z M611.7,303.5c-0.1-2.3-0.4-4.5-1.2-6.5c-0.7-2-1.7-3.7-3-5.2
	c-1.3-1.4-3-2.6-5-3.5c-2-0.9-4.3-1.3-7.1-1.3c-2.6,0-5,0.4-7.2,1.4c-2.2,1-4,2.3-5.5,3.9c-1.4,1.6-2.6,3.3-3.5,5.2
	c-0.9,1.9-1.3,3.9-1.3,5.8L611.7,303.5L611.7,303.5z"/>
<path class="st0" d="M640.4,312c0,2.4,0.6,4.6,1.6,6.6c1,2,2.4,3.7,4.2,5.2c1.7,1.4,3.7,2.6,6.1,3.3c2.3,0.7,4.6,1.2,7.1,1.2
	c3.3,0,6.2-0.7,8.6-2.3c2.4-1.6,4.8-3.6,6.8-6.1l8.1,6.2c-5.9,7.6-14.1,11.5-24.8,11.5c-4.5,0-8.4-0.7-12-2.3
	c-3.6-1.4-6.6-3.6-9.1-6.2c-2.4-2.6-4.3-5.8-5.8-9.4c-1.3-3.6-2-7.5-2-11.7s0.7-8.1,2.2-11.7s3.5-6.6,6.1-9.4
	c2.6-2.6,5.6-4.8,9.2-6.2c3.6-1.4,7.3-2.3,11.5-2.3c4.9,0,9.2,0.9,12.5,2.6c3.5,1.7,6.2,4,8.5,6.8c2.2,2.7,3.7,5.9,4.8,9.5
	c1,3.5,1.4,7.1,1.4,10.7v3.7L640.4,312L640.4,312z M674,303.5c-0.1-2.3-0.4-4.5-1.2-6.5c-0.7-2-1.7-3.7-3-5.2c-1.3-1.4-3-2.6-5-3.5
	s-4.3-1.3-7.1-1.3c-2.6,0-5,0.4-7.2,1.4c-2.2,1-4,2.3-5.5,3.9s-2.6,3.3-3.5,5.2c-0.9,1.9-1.3,3.9-1.3,5.8L674,303.5L674,303.5z"/>
<path class="st0" d="M411.8,280.2c0,0-6.3-0.9-9.7-0.6c-4,0.3-5.5,0.9-7.6,2c-1.4,0.9-2.7,1.9-3.9,3.2c-1.2,1.2-2.2,2.6-2.9,4h-0.3
	v-8.6h-10.7v56h10.7c0,0-0.3-23.1,0-28.7c0.3-5.6,1.3-11.5,4.2-14.3c3-2.7,4.5-3.3,8.1-3.9c3.5-0.4,7.9,0,7.9,0
	S411.8,280.2,411.8,280.2z"/>
<path class="st0" d="M450.9,327.1c-1.3,0.3-2.6,0.3-3.9,0.3c-2,0-3.6-0.4-4.6-1.2c-1-0.7-1.9-1.7-2.3-3c-0.6-1.2-0.9-2.6-0.9-4.2
	c-0.1-1.6-0.1-3-0.1-4.6v-25.4h15.3v-9.2h-15.3v-15.6h-10.7V280h-10.7l-4,9.2h14.7v29.2c0,2.3,0.1,4.6,0.3,6.8
	c0.1,2.3,0.9,4.3,1.9,6.1c1,1.9,2.7,3.3,4.9,4.5c2.3,1.2,5.5,1.7,9.5,1.7c1.2,0,2.6-0.1,4.6-0.4c2-0.3,3.6-0.7,4.9-1.4V326
	C453.5,326.6,452.2,327,450.9,327.1L450.9,327.1z"/>
<path class="st0" d="M722.7,327.1c-1.3,0.3-2.6,0.3-3.9,0.3c-2,0-3.6-0.4-4.6-1.2c-1-0.7-1.9-1.7-2.3-3c-0.6-1.2-0.9-2.6-0.9-4.2
	c-0.1-1.6-0.1-3-0.1-4.6v-25.4h15.3v-9.2h-15.3v-15.6h-10.7V280h-10.7l-4,9.2h14.7v29.2c0,2.3,0.1,4.6,0.3,6.8
	c0.1,2.3,0.9,4.3,1.9,6.1c1,1.9,2.7,3.3,4.9,4.5c2.3,1.2,5.5,1.7,9.5,1.7c1.2,0,2.6-0.1,4.6-0.4c2-0.3,3.6-0.7,4.9-1.4V326
	C725.1,326.6,724,327,722.7,327.1z"/>
<path class="st0" d="M86.6,300.8c0,0,3.7-5.3,8.8-5.5c7.8-0.1,14.1,13.8,15.1,15.8c8.6-19.3,22.9-35.6,34.4-46.5h-71
	c0,6.6,0.1,74.2,0.1,79.7c0,4.3-0.6,7.5-0.9,8.9c3.2-0.4,15.1-2.6,27.2-6.9c21.6-7.8,30.1-16,30.1-16.1l0.6-0.6l0.3,0.7
	c0,0,2.7,6.1,5.3,9.2c3,3.5,4.6,3.9,5.5,3.6c1.2-0.4,2-2.3,2.3-5.6c0.3-3.2,0.6-10.5,0.6-19.3v-47.4c-20.7,25.6-36.2,64.3-36.2,64.3
	S98.7,300.5,86.6,300.8L86.6,300.8z"/>
</svg>
